<svg width="41" height="39" viewBox="0 0 41 39" fill="none" xmlns="http://www.w3.org/2000/svg">
<path d="M19.0182 22.3375C16.6136 22.0373 12.0298 26.1506 10.2525 30.2489C9.79545 31.3034 8.94561 33.3346 9.58336 35.3704C9.72675 35.8274 10.5617 38.247 13.4965 38.6756C13.5383 38.6816 13.5787 38.6876 13.6205 38.6921C15.6667 38.9475 18.5418 38.2455 20.2788 36.3292C21.9994 34.4309 22.1069 31.9128 22.1129 30.9539C22.1129 30.685 22.1099 30.4252 22.0995 30.1787C22.0084 27.6202 21.5125 24.7421 20.0458 22.8722C19.7396 22.4824 19.4484 22.4122 19.1138 22.3509C19.0825 22.345 19.0511 22.3405 19.0182 22.336" fill="#F64E85"/>
<path d="M10.7095 12.7249C9.60427 12.5875 7.70296 12.4635 5.44318 13.5643C4.89206 13.8331 1.95122 15.3267 0.639861 18.2869C-0.277191 20.357 -0.342908 23.0216 1.33736 24.1836C1.8377 24.5286 2.44409 24.7108 3.07737 24.7899C4.51269 24.9692 6.07795 24.6182 6.82025 24.4345C7.12046 24.3598 7.41022 24.2806 7.68951 24.203C10.5706 23.389 13.9282 22.0926 16.4329 20.1434C16.9556 19.7372 17.1184 19.4355 17.2797 19.0935C18.4298 16.6739 15.1021 13.3253 10.9739 12.7622C10.8917 12.7518 10.8036 12.7398 10.711 12.7279" fill="#F78A4C"/>
<path d="M26.9343 0.050436C24.8881 -0.204964 22.013 0.498507 20.2759 2.41476C18.5539 4.31309 18.4463 6.83124 18.4418 7.79012C18.4388 8.05896 18.4463 8.31735 18.4538 8.56528C18.5464 11.1223 19.0423 14.0019 20.5104 15.8718C20.8151 16.2616 21.1064 16.3333 21.4424 16.3931C21.4738 16.3991 21.5066 16.4035 21.538 16.408C23.9427 16.7082 28.5249 12.5949 30.3008 8.49807C30.7593 7.44211 31.6092 5.41086 30.9699 3.37662C30.8265 2.91958 29.9931 0.498507 27.0597 0.0698524C27.0179 0.0638781 26.9776 0.0579039 26.9358 0.0534231" fill="#A0F0FD"/>
<path d="M37.4758 13.9541C36.042 13.7749 34.4752 14.1259 33.7344 14.3111C33.4357 14.3842 33.1429 14.4649 32.8651 14.5426C29.981 15.3581 26.6265 16.6545 24.1203 18.6036C23.599 19.0098 23.4377 19.31 23.2734 19.6536C22.1249 22.0731 25.4525 25.4217 29.5808 25.9833C29.6659 25.9953 29.7585 26.0072 29.8571 26.0192C30.9623 26.1566 32.8577 26.2746 35.1115 25.1768C35.6626 24.9079 38.6019 23.4159 39.9133 20.4556C40.8303 18.3855 40.8976 15.721 39.2173 14.5605C38.7169 14.2155 38.1091 14.0333 37.4758 13.9541Z" fill="#8732F8"/>
<path d="M25.8573 26.515C25.6751 26.4926 25.4914 26.4792 25.3077 26.4762C25.0194 26.4717 24.8596 26.5464 24.6819 26.6405C23.4258 27.3051 22.8433 29.9577 23.5826 31.6633C23.7708 32.0965 24.1472 32.9209 25.2091 33.2585C25.2898 33.2839 25.4884 33.3436 25.7767 33.3795C26.3442 33.4497 27.2553 33.4287 28.2605 32.8672C29.3194 32.2757 30.4202 31.1212 30.4993 30.0159C30.5755 28.9421 29.6734 28.2296 29.3134 27.9712C29.2134 27.8981 29.1133 27.8308 29.0162 27.7666C28.141 27.1961 27.0372 26.6614 25.8573 26.515Z" fill="#CB4A74"/>
<path d="M9.77163 25.0558C8.67087 24.9184 6.99359 25.2708 5.61054 26.055C5.07286 26.3597 4.04528 26.9586 3.3672 28.0817C3.21486 28.3342 2.42476 29.6978 2.93855 30.9225C3.22233 31.5976 3.88995 32.1995 4.75323 32.3071C4.98474 32.3354 5.23118 32.3295 5.48807 32.2787C6.6665 32.0487 7.71797 30.9733 8.10929 30.5506C8.21832 30.4326 8.32287 30.3161 8.42144 30.2041C9.44305 29.0406 10.499 27.5933 10.9157 26.2506C11.0023 25.9713 10.962 25.8369 10.9082 25.692C10.7753 25.3366 10.3541 25.1275 9.77163 25.0543" fill="#D4ED77"/>
<path d="M14.7765 5.36306C14.209 5.29286 13.2979 5.31377 12.2912 5.87535C11.2323 6.46681 10.1315 7.62134 10.0539 8.72658C9.97769 9.80046 10.8798 10.5129 11.2398 10.7728C11.3413 10.846 11.4414 10.9132 11.5385 10.9759C12.4137 11.5464 13.5189 12.0811 14.6989 12.229C14.8796 12.2514 15.0618 12.2648 15.2455 12.2678C15.5338 12.2723 15.6951 12.1961 15.8728 12.102C17.1289 11.4389 17.7099 8.78632 16.9706 7.08066C16.7824 6.64753 16.4075 5.82308 15.3441 5.48553C15.2634 5.46014 15.0648 5.4004 14.778 5.36455" fill="#FFD331"/>
<path d="M35.8002 6.43396C35.5687 6.40558 35.3222 6.41156 35.0653 6.46234C33.8884 6.69384 32.8369 7.76921 32.4456 8.1904C32.3351 8.30988 32.2305 8.42489 32.132 8.53691C31.1119 9.6989 30.0559 11.1462 29.6392 12.4904C29.5511 12.7712 29.5899 12.9056 29.6452 13.0505C29.7781 13.4059 30.2008 13.615 30.7833 13.6882C31.8855 13.8256 33.5613 13.4732 34.9444 12.6875C35.4821 12.3828 36.5081 11.7854 37.1877 10.6608C37.3401 10.4083 38.1302 9.04621 37.6164 7.81999C37.3311 7.1449 36.665 6.54299 35.8017 6.43545" fill="#66A0D1"/>
</svg>
