<svg width="60" height="60" viewBox="0 0 60 60" fill="none" xmlns="http://www.w3.org/2000/svg">
<rect opacity="0.1" width="60" height="60" rx="30" fill="#FD5B4F"/>
<path d="M32.0118 20.8075C31.6213 20.417 30.9881 20.417 30.5976 20.8075C30.2071 21.1981 30.2071 21.8312 30.5976 22.2218L37.3763 29.0005H20.209C19.6567 29.0005 19.209 29.4482 19.209 30.0005C19.209 30.5528 19.6567 31.0005 20.209 31.0005H37.3752L30.5976 37.7781C30.2071 38.1686 30.2071 38.8018 30.5976 39.1923C30.9881 39.5828 31.6213 39.5828 32.0118 39.1923L40.4704 30.7337C40.6672 30.5511 40.7904 30.2902 40.7904 30.0005C40.7904 29.8116 40.738 29.6349 40.647 29.4842C40.6059 29.416 40.5559 29.3517 40.4971 29.2928L32.0118 20.8075Z" fill="#FD5B4F"/>
</svg>
