<svg width="32" height="32" viewBox="0 0 32 32" fill="none" xmlns="http://www.w3.org/2000/svg">
<rect width="32" height="32" rx="16" fill="#124658"/>
<mask id="mask0_4_4283" style="mask-type:alpha" maskUnits="userSpaceOnUse" x="4" y="4" width="24" height="24">
<rect x="4" y="4" width="24" height="24" fill="#D9D9D9"/>
</mask>
<g mask="url(#mask0_4_4283)">
<path d="M16 24.675C15.7667 24.675 15.5292 24.6333 15.2875 24.55C15.0458 24.4667 14.8333 24.3333 14.65 24.15L12.925 22.575C11.1583 20.9583 9.5625 19.3542 8.1375 17.7625C6.7125 16.1708 6 14.4167 6 12.5C6 10.9333 6.525 9.625 7.575 8.575C8.625 7.525 9.93333 7 11.5 7C12.3833 7 13.2167 7.1875 14 7.5625C14.7833 7.9375 15.45 8.45 16 9.1C16.55 8.45 17.2167 7.9375 18 7.5625C18.7833 7.1875 19.6167 7 20.5 7C22.0667 7 23.375 7.525 24.425 8.575C25.475 9.625 26 10.9333 26 12.5C26 14.4167 25.2917 16.175 23.875 17.775C22.4583 19.375 20.85 20.9833 19.05 22.6L17.35 24.15C17.1667 24.3333 16.9542 24.4667 16.7125 24.55C16.4708 24.6333 16.2333 24.675 16 24.675ZM15.05 11.1C14.5667 10.4167 14.05 9.89583 13.5 9.5375C12.95 9.17917 12.2833 9 11.5 9C10.5 9 9.66667 9.33333 9 10C8.33333 10.6667 8 11.5 8 12.5C8 13.3667 8.30833 14.2875 8.925 15.2625C9.54167 16.2375 10.2792 17.1833 11.1375 18.1C11.9958 19.0167 12.8792 19.875 13.7875 20.675C14.6958 21.475 15.4333 22.1333 16 22.65C16.5667 22.1333 17.3042 21.475 18.2125 20.675C19.1208 19.875 20.0042 19.0167 20.8625 18.1C21.7208 17.1833 22.4583 16.2375 23.075 15.2625C23.6917 14.2875 24 13.3667 24 12.5C24 11.5 23.6667 10.6667 23 10C22.3333 9.33333 21.5 9 20.5 9C19.7167 9 19.05 9.17917 18.5 9.5375C17.95 9.89583 17.4333 10.4167 16.95 11.1C16.8333 11.2667 16.6917 11.3917 16.525 11.475C16.3583 11.5583 16.1833 11.6 16 11.6C15.8167 11.6 15.6417 11.5583 15.475 11.475C15.3083 11.3917 15.1667 11.2667 15.05 11.1Z" fill="white"/>
</g>
</svg>
